<svg width="20" height="20" viewBox="0 0 20 20" fill="none" xmlns="http://www.w3.org/2000/svg">
<path d="M1.25195 2.12744H18.752" stroke="white" stroke-width="2" stroke-linecap="round" stroke-linejoin="round"/>
<path d="M1.25195 17.8774H18.752" stroke="white" stroke-width="2" stroke-linecap="round" stroke-linejoin="round"/>
<path d="M5.25 6.87744C4.58696 6.87744 3.95107 7.14083 3.48223 7.60967C3.01339 8.07852 2.75 8.7144 2.75 9.37744V10.6274C2.75 11.2905 3.01339 11.9264 3.48223 12.3952C3.95107 12.864 4.58696 13.1274 5.25 13.1274" stroke="white" stroke-width="2" stroke-linecap="round" stroke-linejoin="round"/>
<path d="M11.25 6.87744H10C9.66848 6.87744 9.35054 7.00914 9.11612 7.24356C8.8817 7.47798 8.75 7.79592 8.75 8.12744C8.75 10.0024 11.25 10.0024 11.25 11.8774C11.25 12.209 11.1183 12.5269 10.8839 12.7613C10.6495 12.9957 10.3315 13.1274 10 13.1274H8.75" stroke="white" stroke-width="2" stroke-linecap="round" stroke-linejoin="round"/>
<path d="M14.75 6.87744V8.99994C14.7501 10.469 15.185 11.9052 16 13.1274C16.815 11.9052 17.2499 10.469 17.25 8.99994V6.87744" stroke="white" stroke-width="2" stroke-linecap="round" stroke-linejoin="round"/>
</svg>
