<svg width="20" height="20" viewBox="0 0 20 20" fill="none" xmlns="http://www.w3.org/2000/svg">
<g clip-path="url(#clip0)">
<path d="M10 8.125C14.4873 8.125 18.125 6.44607 18.125 4.375C18.125 2.30393 14.4873 0.625 10 0.625C5.51269 0.625 1.875 2.30393 1.875 4.375C1.875 6.44607 5.51269 8.125 10 8.125Z" stroke="white" stroke-width="2" stroke-linecap="round" stroke-linejoin="round"/>
<path d="M1.875 4.375C1.87602 6.20286 2.49355 7.97694 3.62771 9.41037C4.76187 10.8438 6.34638 11.8528 8.125 12.2742V17.5C8.125 17.9973 8.32254 18.4742 8.67417 18.8258C9.02581 19.1775 9.50272 19.375 10 19.375C10.4973 19.375 10.9742 19.1775 11.3258 18.8258C11.6775 18.4742 11.875 17.9973 11.875 17.5V12.2742C13.6536 11.8528 15.2381 10.8438 16.3723 9.41037C17.5065 7.97694 18.124 6.20286 18.125 4.375" stroke="white" stroke-width="2" stroke-linecap="round" stroke-linejoin="round"/>
</g>
<defs>
<clipPath id="clip0">
<rect width="20" height="20" fill="white"/>
</clipPath>
</defs>
</svg>
