<svg width="25" height="18" viewBox="0 0 25 18" fill="none" xmlns="http://www.w3.org/2000/svg">
<path fill-rule="evenodd" clip-rule="evenodd" d="M9.64184 0.587402C9.11976 0.587402 8.59768 0.787534 8.19741 1.1878L1.01006 7.83566C0.209536 8.63619 0.209536 9.93269 1.01006 10.7332L8.19741 17.3898C8.59768 17.79 9.11976 17.9902 9.64184 17.9902H22.955C24.0861 17.9902 24.9998 17.0765 24.9998 15.9454V2.63223C24.9998 1.50105 24.0861 0.587402 22.955 0.587402H9.64184ZM18.3259 13.9008C18.6131 13.9008 18.8567 13.8051 19.0569 13.6049C19.257 13.4048 19.3614 13.1699 19.3527 12.8914V5.66926C19.3527 5.39081 19.2483 5.15588 19.0569 4.96445C18.8654 4.77302 18.6305 4.6773 18.3521 4.6773C18.0562 4.6773 17.8126 4.77302 17.6124 4.96445C17.4123 5.16458 17.3166 5.39081 17.3166 5.66926V8.27968H13.1747V5.66926C13.1747 5.39081 13.079 5.15588 12.8876 4.96445C12.6874 4.77302 12.4612 4.6773 12.1828 4.6773C11.9043 4.6773 11.6607 4.77302 11.4606 4.96445C11.2604 5.16458 11.1647 5.39081 11.1647 5.66926V12.9088C11.1647 13.1873 11.2604 13.4222 11.4519 13.6136C11.652 13.8051 11.8782 13.9008 12.1567 13.9008C12.4351 13.9008 12.6787 13.8051 12.8789 13.6136C13.079 13.4135 13.1747 13.1873 13.1747 12.9088V10.0548H17.3166V12.8914C17.3166 13.1699 17.4123 13.4048 17.6124 13.6049C17.8126 13.8051 18.0475 13.9008 18.3259 13.9008Z" fill="#F76A1D"/>
</svg>
