<svg width="115" height="86" viewBox="0 0 115 86" fill="none" xmlns="http://www.w3.org/2000/svg">
<g opacity="0.2">
<mask id="path-1-inside-1" fill="white">
<path fill-rule="evenodd" clip-rule="evenodd" d="M45.0319 8C42.9377 8 40.8436 8.80277 39.238 10.4083L10.4083 37.0741C7.19723 40.2851 7.19723 45.4857 10.4083 48.6967L39.238 75.3974C40.8436 77.0029 42.9377 77.8057 45.0319 77.8057L98.4333 77.8057C102.971 77.8057 106.635 74.1409 106.635 69.6035L106.635 16.2022C106.635 11.6648 102.971 8 98.4333 8L45.0319 8ZM79.8649 61.4022C81.0167 61.4022 81.994 61.0182 82.7968 60.2155C83.5995 59.4127 84.0184 58.4703 83.9835 57.3534L83.9835 28.3841C83.9835 27.2672 83.5646 26.3248 82.7968 25.5569C82.0289 24.7891 81.0865 24.4051 79.9696 24.4051C78.7829 24.4051 77.8057 24.7891 77.0029 25.5569C76.2001 26.3597 75.8162 27.2672 75.8162 28.3841L75.8162 38.8549L59.2025 38.8549L59.2025 28.3841C59.2025 27.2672 58.8185 26.3248 58.0507 25.5569C57.2479 24.7891 56.3404 24.4051 55.2235 24.4051C54.1066 24.4051 53.1294 24.7891 52.3266 25.5569C51.5238 26.3597 51.1399 27.2672 51.1399 28.3841L51.1399 57.4232C51.1399 58.5401 51.5238 59.4825 52.2917 60.2504C53.0945 61.0182 54.0019 61.4022 55.1188 61.4022C56.2357 61.4022 57.213 61.0182 58.0158 60.2504C58.8185 59.4476 59.2025 58.5401 59.2025 57.4232L59.2025 45.9751L75.8162 45.9751L75.8162 57.3534C75.8162 58.4703 76.2001 59.4127 77.0029 60.2155C77.8057 61.0182 78.748 61.4022 79.8649 61.4022Z"/>
</mask>
<path d="M39.238 10.4083L40.4465 11.7148L40.4719 11.6912L40.4965 11.6667L39.238 10.4083ZM45.0319 8L45.0319 9.77966L45.0319 8ZM10.4083 37.0741L9.19988 35.7676L9.17442 35.7911L9.14989 35.8157L10.4083 37.0741ZM10.4083 48.6967L9.14989 49.9551L9.174 49.9792L9.19903 50.0024L10.4083 48.6967ZM39.238 75.3974L40.4965 74.139L40.4723 74.1149L40.4473 74.0917L39.238 75.3974ZM45.0319 77.8057L45.0319 79.5853L45.0319 77.8057ZM98.4333 77.8057L98.4333 76.026L98.4333 77.8057ZM98.4333 8L98.4333 6.22034L98.4333 8ZM83.9835 57.3534L82.2038 57.3534L82.2038 57.3812L82.2047 57.409L83.9835 57.3534ZM82.7968 25.5569L81.5384 26.8153L81.5384 26.8154L82.7968 25.5569ZM77.0029 25.5569L75.7728 24.2709L75.7585 24.2846L75.7445 24.2985L77.0029 25.5569ZM75.8162 38.8549L75.8162 40.6346L77.5959 40.6346L77.5959 38.8549L75.8162 38.8549ZM59.2025 38.8549L57.4228 38.8549L57.4228 40.6346L59.2025 40.6346L59.2025 38.8549ZM58.0507 25.5569L59.3091 24.2985L59.2951 24.2846L59.2808 24.2709L58.0507 25.5569ZM52.3266 25.5569L51.0965 24.2709L51.0822 24.2846L51.0682 24.2985L52.3266 25.5569ZM52.2917 60.2504L51.0333 61.5088L51.0473 61.5228L51.0616 61.5364L52.2917 60.2504ZM58.0158 60.2504L59.2459 61.5364L59.2602 61.5228L59.2742 61.5088L58.0158 60.2504ZM59.2025 45.9751L59.2025 44.1955L57.4228 44.1955L57.4228 45.9751L59.2025 45.9751ZM75.8162 45.9751L77.5959 45.9751L77.5959 44.1955L75.8162 44.1955L75.8162 45.9751ZM40.4965 11.6667C41.7572 10.4059 43.3939 9.77966 45.0319 9.77966L45.0319 6.22034C42.4815 6.22034 39.9299 7.1996 37.9796 9.14989L40.4965 11.6667ZM11.6167 38.3806L40.4465 11.7148L38.0296 9.10181L9.19988 35.7676L11.6167 38.3806ZM11.6667 47.4383C9.15064 44.9222 9.15064 40.8485 11.6667 38.3325L9.14989 35.8157C5.24383 39.7217 5.24383 46.0491 9.14989 49.9551L11.6667 47.4383ZM40.4473 74.0917L11.6176 47.391L9.19903 50.0024L38.0288 76.7031L40.4473 74.0917ZM45.0319 76.026C43.3939 76.026 41.7572 75.3998 40.4965 74.139L37.9796 76.6558C39.9299 78.6061 42.4815 79.5853 45.0319 79.5853L45.0319 76.026ZM98.4333 76.026L45.0319 76.026L45.0319 79.5853L98.4333 79.5853L98.4333 76.026ZM104.856 69.6035C104.856 73.158 101.988 76.026 98.4333 76.026L98.4333 79.5853C103.954 79.5853 108.415 75.1238 108.415 69.6035L104.856 69.6035ZM104.856 16.2022L104.856 69.6035L108.415 69.6035L108.415 16.2022L104.856 16.2022ZM98.4333 9.77965C101.988 9.77965 104.856 12.6477 104.856 16.2022L108.415 16.2022C108.415 10.6819 103.954 6.22034 98.4333 6.22034L98.4333 9.77965ZM45.0319 9.77966L98.4333 9.77965L98.4333 6.22034L45.0319 6.22034L45.0319 9.77966ZM81.5384 58.9571C81.0884 59.407 80.5724 59.6225 79.8649 59.6225L79.8649 63.1818C81.461 63.1818 82.8996 62.6295 84.0552 61.4739L81.5384 58.9571ZM82.2047 57.409C82.2225 57.9788 82.0355 58.4599 81.5384 58.9571L84.0552 61.4739C85.1636 60.3655 85.8143 58.9618 85.7623 57.2978L82.2047 57.409ZM82.2038 28.3841L82.2038 57.3534L85.7631 57.3534L85.7631 28.3841L82.2038 28.3841ZM81.5384 26.8154C81.9908 27.2678 82.2038 27.7644 82.2038 28.3841L85.7631 28.3841C85.7631 26.7699 85.1385 25.3819 84.0552 24.2985L81.5384 26.8154ZM79.9696 26.1848C80.6296 26.1848 81.1148 26.3917 81.5384 26.8153L84.0552 24.2985C82.9431 23.1864 81.5435 22.6255 79.9696 22.6255L79.9696 26.1848ZM78.233 26.843C78.6859 26.4098 79.2147 26.1848 79.9696 26.1848L79.9696 22.6255C78.3512 22.6255 76.9255 23.1683 75.7728 24.2709L78.233 26.843ZM77.5959 28.3841C77.5959 27.753 77.7824 27.2942 78.2613 26.8153L75.7445 24.2985C74.6179 25.4252 74.0366 26.7814 74.0366 28.3841L77.5959 28.3841ZM77.5959 38.8549L77.5959 28.3841L74.0366 28.3841L74.0366 38.8549L77.5959 38.8549ZM59.2025 40.6346L75.8162 40.6346L75.8162 37.0753L59.2025 37.0753L59.2025 40.6346ZM57.4228 28.3841L57.4228 38.8549L60.9821 38.8549L60.9821 28.3841L57.4228 28.3841ZM56.7923 26.8153C57.2159 27.239 57.4228 27.7241 57.4228 28.3841L60.9821 28.3841C60.9821 26.8102 60.4212 25.4107 59.3091 24.2985L56.7923 26.8153ZM55.2235 26.1848C55.8605 26.1848 56.333 26.3767 56.8205 26.843L59.2808 24.2709C58.1628 23.2015 56.8204 22.6255 55.2235 22.6255L55.2235 26.1848ZM53.5567 26.843C54.0206 26.3993 54.5542 26.1848 55.2235 26.1848L55.2235 22.6255C53.6591 22.6255 52.2381 23.1789 51.0965 24.2709L53.5567 26.843ZM52.9196 28.3841C52.9196 27.753 53.1061 27.2942 53.585 26.8154L51.0682 24.2985C49.9416 25.4252 49.3602 26.7814 49.3602 28.3841L52.9196 28.3841ZM52.9196 57.4232L52.9196 28.3841L49.3602 28.3841L49.3602 57.4232L52.9196 57.4232ZM53.5501 58.992C53.1265 58.5683 52.9196 58.0832 52.9196 57.4232L49.3602 57.4232C49.3602 58.9971 49.9212 60.3967 51.0333 61.5088L53.5501 58.992ZM55.1188 59.6225C54.4819 59.6225 54.0094 59.4307 53.5218 58.9643L51.0616 61.5364C52.1796 62.6058 53.522 63.1818 55.1188 63.1818L55.1188 59.6225ZM56.7856 58.9643C56.3218 59.408 55.7882 59.6225 55.1188 59.6225L55.1188 63.1818C56.6832 63.1818 58.1042 62.6284 59.2459 61.5364L56.7856 58.9643ZM57.4228 57.4232C57.4228 58.0543 57.2363 58.5131 56.7574 58.992L59.2742 61.5088C60.4008 60.3821 60.9821 59.0259 60.9821 57.4232L57.4228 57.4232ZM57.4228 45.9751L57.4228 57.4232L60.9821 57.4232L60.9821 45.9751L57.4228 45.9751ZM75.8162 44.1955L59.2025 44.1955L59.2025 47.7548L75.8162 47.7548L75.8162 44.1955ZM77.5959 57.3534L77.5959 45.9751L74.0366 45.9751L74.0366 57.3534L77.5959 57.3534ZM78.2613 58.9571C77.7944 58.4902 77.5959 58.0013 77.5959 57.3534L74.0366 57.3534C74.0366 58.9393 74.6059 60.3352 75.7445 61.4739L78.2613 58.9571ZM79.8649 59.6225C79.217 59.6225 78.7282 59.424 78.2613 58.9571L75.7445 61.4739C76.8831 62.6125 78.2791 63.1818 79.8649 63.1818L79.8649 59.6225Z" fill="white" mask="url(#path-1-inside-1)"/>
</g>
</svg>
