<svg width="28" height="34" viewBox="0 0 28 34" fill="none" xmlns="http://www.w3.org/2000/svg">
<path d="M9.74566 8.50414L0.4923 17.7072L15.3273 32.561L16.2038 31.6916L6.93457 22.403L15.3092 14.077C16.852 12.5425 16.8565 10.0521 15.3191 8.51417C13.783 6.9749 11.2885 6.9709 9.74566 8.50414ZM14.4369 13.2025L6.06233 21.5298L2.23984 17.7111L10.618 9.37858C11.6767 8.32537 13.3899 8.32844 14.4452 9.38468C15.5004 10.4409 15.4957 12.1506 14.4369 13.2025Z" fill="#666F79"/>
<path d="M17.9114 24.7681L27.1647 15.5651L12.3298 0.711307L11.4532 1.58068L20.7224 10.8693L12.3465 19.1954C10.8037 20.7299 10.7992 23.2202 12.3366 24.7582C13.8741 26.2987 16.3685 26.3027 17.9114 24.7681ZM13.2201 20.0698L21.5947 11.7425L25.4172 15.5612L17.0391 23.8937C15.9803 24.9469 14.2671 24.9438 13.2118 23.8876C12.1566 22.8314 12.1614 21.123 13.2201 20.0698Z" fill="#666F79"/>
</svg>
