<svg width="141" height="12" viewBox="0 0 141 12" fill="none" xmlns="http://www.w3.org/2000/svg">
<path d="M8.67985 4.50828C8.67985 6.67284 7.11093 7.98482 4.52202 7.98482H2.05769V11.0059H0.632812V1.03174H4.52202C7.11093 1.03174 8.67985 2.34371 8.67985 4.50828ZM7.25498 4.50828C7.25498 3.0834 6.30117 2.27364 4.4792 2.27364H2.05769V6.74681H4.4792C6.30117 6.74681 7.25498 5.93315 7.25498 4.50828Z" fill="#666F79"/>
<path d="M19.4336 9.76396V11.002H12.1963V1.03174H19.235V2.26974H13.6212V5.33362H18.6199V6.54437H13.6212V9.76396H19.4336Z" fill="#666F79"/>
<path d="M25.1467 2.27365H21.7285V1.03564H29.978V2.27365H26.5599V11.0059H25.1505V2.27365H25.1467Z" fill="#666F79"/>
<path d="M39.6176 11.0059L37.4647 7.94199C37.2662 7.95757 37.0521 7.96925 36.8379 7.96925H34.3736V11.002H32.9487V1.03174H36.8379C39.4307 1.03174 40.9958 2.34371 40.9958 4.50828C40.9958 6.04605 40.1977 7.15948 38.804 7.6578L41.1671 11.0059H39.6176ZM39.5748 4.50828C39.5748 3.0834 38.621 2.27364 36.799 2.27364H34.3775V6.76238H36.799C38.621 6.75849 39.5748 5.93315 39.5748 4.50828Z" fill="#666F79"/>
<path d="M43.9209 6.01891C43.9209 3.09908 46.1711 0.918945 49.235 0.918945C52.2677 0.918945 54.5218 3.08351 54.5218 6.01891C54.5218 8.95431 52.2716 11.1189 49.235 11.1189C46.175 11.1189 43.9209 8.93873 43.9209 6.01891ZM53.0969 6.01891C53.0969 3.81152 51.4463 2.1881 49.235 2.1881C47.0003 2.1881 45.3458 3.81152 45.3458 6.01891C45.3458 8.2263 47.0003 9.84972 49.235 9.84972C51.4424 9.84972 53.0969 8.2263 53.0969 6.01891Z" fill="#666F79"/>
<path d="M66.4735 1.03174L62.1015 11.002H60.6922L56.3047 1.03174H57.8425L61.4319 9.22282L65.0486 1.03174H66.4735Z" fill="#666F79"/>
<path d="M75.9531 1.03174H80.1538C83.3578 1.03174 85.538 3.05615 85.538 6.0188C85.538 8.98145 83.3578 11.0059 80.1538 11.0059H75.9531V1.03174ZM80.072 9.76396C82.5364 9.76396 84.117 8.25344 84.117 6.0188C84.117 3.78416 82.5364 2.27364 80.072 2.27364H77.378V9.76786H80.072V9.76396Z" fill="#666F79"/>
<path d="M89.0039 1.03174H90.4288V11.002H89.0039V1.03174Z" fill="#666F79"/>
<path d="M101.684 5.96051H103.05V9.84972C102.054 10.6906 100.672 11.1189 99.2741 11.1189C96.2102 11.1189 93.96 8.96599 93.96 6.01891C93.96 3.07183 96.2102 0.918945 99.3013 0.918945C100.882 0.918945 102.221 1.44451 103.132 2.45672L102.248 3.34045C101.423 2.54237 100.481 2.1881 99.3558 2.1881C97.0472 2.1881 95.381 3.79595 95.381 6.01891C95.381 8.21072 97.0472 9.84972 99.3402 9.84972C100.181 9.84972 100.964 9.66285 101.676 9.20736V5.96051H101.684Z" fill="#666F79"/>
<path d="M107.196 1.03174H108.621V11.002H107.196V1.03174Z" fill="#666F79"/>
<path d="M115.017 2.27365H111.599V1.03564H119.849V2.27365H116.43V11.0059H115.021V2.27365H115.017Z" fill="#666F79"/>
<path d="M128.679 8.51039H123.38L122.282 11.002H120.814L125.33 1.03174H126.74L131.271 11.002H129.776L128.679 8.51039ZM128.18 7.3736L126.027 2.48776L123.874 7.3736H128.18Z" fill="#666F79"/>
<path d="M134.175 1.03174H135.6V9.76396H140.999V11.002H134.175V1.03174Z" fill="#666F79"/>
</svg>
