<svg width="121" height="110" viewBox="0 0 121 110" fill="none" xmlns="http://www.w3.org/2000/svg">
<g clip-path="url(#clip0)">
<path d="M87.5436 58.5406L79.8125 42.0238C78.8299 39.924 77.0536 38.3003 74.8741 37.5098L30.0702 21.274C28.9802 20.8792 27.7781 20.9335 26.7281 21.425C25.6782 21.9164 24.8664 22.8048 24.4713 23.8947L14.8135 50.5557C14.4188 51.6457 14.4731 52.8478 14.9645 53.8977C15.456 54.9477 16.3443 55.7595 17.4342 56.1545L62.2369 72.3878C64.4168 73.1768 66.8209 73.0678 68.9206 72.0848L85.4374 64.3536C86.4875 63.8621 87.2994 62.9735 87.6944 61.8834C88.0894 60.7932 88.0351 59.5908 87.5436 58.5406Z" fill="white"/>
<g filter="url(#filter0_i)">
<path d="M68.577 51.2401C65.9625 52.4639 64.8351 55.5754 66.0589 58.1899C67.2827 60.8044 70.3942 61.9318 73.0087 60.708C75.6232 59.4843 76.7506 56.3727 75.5268 53.7582C74.303 51.1437 71.1915 50.0163 68.577 51.2401Z" fill="url(#paint0_linear)"/>
</g>
<path d="M35.9024 39.7652C35.8371 39.9453 35.7208 40.0746 35.5534 40.153C35.386 40.2313 35.2163 40.2393 35.0443 40.177L31.4324 38.8683L30.6756 40.9568L34.2016 42.2344C34.3736 42.2967 34.4973 42.4156 34.5727 42.5912C34.651 42.7586 34.6575 42.9324 34.5922 43.1126C34.527 43.2927 34.4106 43.422 34.2433 43.5003C34.0759 43.5787 33.9062 43.5867 33.7342 43.5244L30.2082 42.2468L29.1666 45.1217C29.0924 45.3264 28.9564 45.4717 28.7585 45.5575C28.5688 45.6463 28.3675 45.6521 28.1545 45.575C27.9579 45.5038 27.8153 45.3733 27.7265 45.1836C27.6377 44.9939 27.6304 44.7967 27.7046 44.5919L30.1173 37.9331C30.2063 37.6874 30.368 37.5097 30.6023 37.4C30.8366 37.2904 31.0766 37.28 31.3223 37.3691L35.5117 38.887C35.6837 38.9493 35.8074 39.0683 35.8828 39.2438C35.9611 39.4112 35.9677 39.585 35.9024 39.7652ZM43.1159 44.5609C42.9853 44.9213 42.8149 45.2255 42.6045 45.4736C42.3972 45.7135 42.1637 45.8976 41.9041 46.0259C41.6527 46.1572 41.39 46.2427 41.1162 46.2825C40.8423 46.3222 40.5792 46.3196 40.3269 46.2745L40.8893 48.98C40.9133 49.1184 40.903 49.249 40.8585 49.3719C40.7962 49.5439 40.6713 49.6839 40.4839 49.7921C40.2994 49.892 40.0966 49.9019 39.8755 49.8218C39.7526 49.7773 39.6443 49.7056 39.5504 49.6067C39.4676 49.5026 39.4143 49.3814 39.3903 49.243L38.7579 45.8866L37.345 45.3747L36.477 47.7704C36.4028 47.9752 36.2668 48.1205 36.0689 48.2063C35.8792 48.2951 35.6779 48.3009 35.4649 48.2237C35.2684 48.1525 35.1257 48.0221 35.0369 47.8324C34.9481 47.6427 34.9408 47.4455 35.015 47.2407L37.4277 40.5819C37.5167 40.3362 37.6784 40.1585 37.9127 40.0488C38.147 39.9391 38.387 39.9288 38.6327 40.0178L41.3724 41.0105C41.7738 41.1559 42.116 41.3494 42.3991 41.5909C42.6904 41.8355 42.9077 42.1181 43.0509 42.4387C43.2054 42.7541 43.2861 43.0937 43.2933 43.4577C43.3115 43.8164 43.2524 44.1841 43.1159 44.5609ZM40.6962 42.2248L38.7428 41.517L37.8124 44.0847L39.7658 44.7925C40.1672 44.9379 40.5404 44.9434 40.8856 44.8091C41.2338 44.6665 41.4776 44.4028 41.6171 44.0178C41.7595 43.6247 41.7412 43.266 41.5622 42.9417C41.3862 42.6092 41.0975 42.3702 40.6962 42.2248ZM48.8463 52.2383C48.778 52.4266 48.6587 52.5641 48.4884 52.6506C48.321 52.729 48.1513 52.737 47.9793 52.6747L43.7899 51.1567C43.5442 51.0677 43.3665 50.906 43.2568 50.6717C43.1471 50.4374 43.1368 50.1974 43.2258 49.9516L45.5539 43.5262C45.643 43.2805 45.8046 43.1028 46.039 42.9932C46.2733 42.8835 46.5133 42.8732 46.759 42.9622L50.9484 44.4801C51.1204 44.5424 51.2441 44.6614 51.3195 44.8369C51.3978 45.0043 51.4043 45.1781 51.3391 45.3583C51.2738 45.5385 51.1574 45.6677 50.9901 45.7461C50.8227 45.8244 50.653 45.8324 50.481 45.7701L46.869 44.4614L46.1123 46.55L49.6383 47.8275C49.8103 47.8898 49.934 48.0088 50.0093 48.1843C50.0877 48.3517 50.0942 48.5255 50.0289 48.7057C49.9636 48.8859 49.8473 49.0151 49.6799 49.0935C49.5126 49.1718 49.3429 49.1798 49.1709 49.1175L45.6449 47.84L44.8347 50.0759L48.4467 51.3847C48.6187 51.447 48.7439 51.5618 48.8222 51.7292C48.9006 51.8966 48.9086 52.0663 48.8463 52.2383ZM56.3366 54.9522C56.2684 55.1406 56.1491 55.2781 55.9787 55.3646C55.8114 55.4429 55.6417 55.4509 55.4697 55.3886L51.2803 53.8707C51.0346 53.7817 50.8569 53.62 50.7472 53.3857C50.6375 53.1513 50.6272 52.9113 50.7162 52.6656L53.0443 46.2402C53.1333 45.9945 53.295 45.8168 53.5293 45.7071C53.7637 45.5974 54.0037 45.5871 54.2494 45.6762L58.4388 47.1941C58.6108 47.2564 58.7345 47.3754 58.8099 47.5509C58.8882 47.7183 58.8947 47.8921 58.8294 48.0723C58.7641 48.2524 58.6478 48.3817 58.4804 48.4601C58.3131 48.5384 58.1434 48.5464 57.9714 48.4841L54.3594 47.1754L53.6027 49.2639L57.1286 50.5415C57.3006 50.6038 57.4243 50.7227 57.4997 50.8983C57.578 51.0657 57.5846 51.2395 57.5193 51.4197C57.454 51.5998 57.3377 51.7291 57.1703 51.8074C57.0029 51.8858 56.8332 51.8938 56.6612 51.8315L53.1353 50.5539L52.3251 52.7899L55.9371 54.0986C56.1091 54.161 56.2343 54.2758 56.3126 54.4432C56.3909 54.6105 56.399 54.7802 56.3366 54.9522Z" fill="#475B6F"/>
</g>
<g filter="url(#filter1_ii)">
<circle cx="110.583" cy="100.073" r="9.58264" fill="url(#paint1_linear)"/>
</g>
<g filter="url(#filter2_d)">
<path d="M69.7717 55.1903C96.4007 58.6096 110.838 90.9098 110.32 100.476" stroke="white" stroke-width="2.61345" stroke-linecap="round"/>
</g>
<defs>
<filter id="filter0_i" x="65.5649" y="50.7458" width="10.4563" height="13.9409" filterUnits="userSpaceOnUse" color-interpolation-filters="sRGB">
<feFlood flood-opacity="0" result="BackgroundImageFix"/>
<feBlend mode="normal" in="SourceGraphic" in2="BackgroundImageFix" result="shape"/>
<feColorMatrix in="SourceAlpha" type="matrix" values="0 0 0 0 0 0 0 0 0 0 0 0 0 0 0 0 0 0 127 0" result="hardAlpha"/>
<feOffset dy="3.4846"/>
<feGaussianBlur stdDeviation="1.7423"/>
<feComposite in2="hardAlpha" operator="arithmetic" k2="-1" k3="1"/>
<feColorMatrix type="matrix" values="0 0 0 0 0 0 0 0 0 0 0 0 0 0 0 0 0 0 0.24 0"/>
<feBlend mode="normal" in2="shape" result="effect1_innerShadow"/>
</filter>
<filter id="filter1_ii" x="101" y="90.4902" width="19.1653" height="21.7787" filterUnits="userSpaceOnUse" color-interpolation-filters="sRGB">
<feFlood flood-opacity="0" result="BackgroundImageFix"/>
<feBlend mode="normal" in="SourceGraphic" in2="BackgroundImageFix" result="shape"/>
<feColorMatrix in="SourceAlpha" type="matrix" values="0 0 0 0 0 0 0 0 0 0 0 0 0 0 0 0 0 0 127 0" result="hardAlpha"/>
<feOffset dy="1.7423"/>
<feGaussianBlur stdDeviation="3.92017"/>
<feComposite in2="hardAlpha" operator="arithmetic" k2="-1" k3="1"/>
<feColorMatrix type="matrix" values="0 0 0 0 0 0 0 0 0 0 0 0 0 0 0 0 0 0 0.25 0"/>
<feBlend mode="normal" in2="shape" result="effect1_innerShadow"/>
<feColorMatrix in="SourceAlpha" type="matrix" values="0 0 0 0 0 0 0 0 0 0 0 0 0 0 0 0 0 0 127 0" result="hardAlpha"/>
<feOffset dy="2.61345"/>
<feGaussianBlur stdDeviation="1.7423"/>
<feComposite in2="hardAlpha" operator="arithmetic" k2="-1" k3="1"/>
<feColorMatrix type="matrix" values="0 0 0 0 0 0 0 0 0 0 0 0 0 0 0 0 0 0 0.05 0"/>
<feBlend mode="normal" in2="effect1_innerShadow" result="effect2_innerShadow"/>
</filter>
<filter id="filter2_d" x="64.9802" y="53.0122" width="50.1444" height="54.8681" filterUnits="userSpaceOnUse" color-interpolation-filters="sRGB">
<feFlood flood-opacity="0" result="BackgroundImageFix"/>
<feColorMatrix in="SourceAlpha" type="matrix" values="0 0 0 0 0 0 0 0 0 0 0 0 0 0 0 0 0 0 127 0" result="hardAlpha"/>
<feOffset dy="2.61345"/>
<feGaussianBlur stdDeviation="1.7423"/>
<feComposite in2="hardAlpha" operator="out"/>
<feColorMatrix type="matrix" values="0 0 0 0 0 0 0 0 0 0 0 0 0 0 0 0 0 0 0.15 0"/>
<feBlend mode="normal" in2="BackgroundImageFix" result="effect1_dropShadow"/>
<feBlend mode="normal" in="SourceGraphic" in2="effect1_dropShadow" result="shape"/>
</filter>
<linearGradient id="paint0_linear" x1="73.0566" y1="69.1019" x2="77.8473" y2="54.9991" gradientUnits="userSpaceOnUse">
<stop offset="0.159397" stop-color="#FACCA9"/>
<stop offset="0.801936" stop-color="#FFAE70"/>
</linearGradient>
<linearGradient id="paint1_linear" x1="117.027" y1="76.5156" x2="98.1114" y2="96.2091" gradientUnits="userSpaceOnUse">
<stop offset="0.159397" stop-color="#FACCA9"/>
<stop offset="0.801936" stop-color="#FFAE70"/>
</linearGradient>
<clipPath id="clip0">
<rect width="69.9503" height="69.9503" fill="white" transform="translate(93.5059 63.9878) rotate(154.917)"/>
</clipPath>
</defs>
</svg>
