<svg width="150" height="99" viewBox="0 0 150 99" fill="none" xmlns="http://www.w3.org/2000/svg">
<g clip-path="url(#clip0)">
<path d="M56.6441 28.1368L62.0622 48.3575C62.7507 50.9282 64.432 53.1203 66.7363 54.4517L114.11 81.8055C115.262 82.4707 116.632 82.6509 117.917 82.3065C119.203 81.962 120.299 81.1212 120.964 79.9688L137.237 51.7781C137.903 50.6255 138.083 49.256 137.738 47.9706C137.394 46.6852 136.553 45.5892 135.401 44.9237L88.0281 17.5731C85.723 16.2432 82.984 15.8832 80.4134 16.5723L60.1928 21.9904C58.9071 22.3349 57.811 23.176 57.1455 24.3287C56.48 25.4814 56.2996 26.8512 56.6441 28.1368Z" fill="white" stroke="url(#paint0_linear)" stroke-width="1.52462" stroke-linecap="round" stroke-linejoin="round"/>
<g filter="url(#filter0_i)">
<path d="M76.6123 40.1993C79.8131 39.3417 81.7126 36.0517 80.855 32.8509C79.9973 29.6501 76.7073 27.7506 73.5065 28.6082C70.3057 29.4659 68.4062 32.7559 69.2639 35.9567C70.1215 39.1575 73.4115 41.057 76.6123 40.1993Z" fill="url(#paint1_linear)"/>
</g>
<path d="M95.3869 41.3942C95.2769 41.5847 95.1194 41.7074 94.9145 41.7623C94.7096 41.8172 94.5162 41.7922 94.3344 41.6872L90.5152 39.4822L89.2402 41.6905L92.9684 43.843C93.1503 43.948 93.2662 44.1073 93.3161 44.3209C93.371 44.5258 93.3435 44.7235 93.2335 44.914C93.1235 45.1045 92.966 45.2273 92.7611 45.2822C92.5562 45.3371 92.3628 45.312 92.1809 45.207L88.4527 43.0545L86.6977 46.0943C86.5727 46.3108 86.3898 46.4476 86.1489 46.5049C85.9167 46.5671 85.688 46.5332 85.4628 46.4032C85.2549 46.2832 85.1199 46.1071 85.0577 45.8749C84.9955 45.6426 85.0268 45.4183 85.1518 45.2018L89.2168 38.161C89.3668 37.9012 89.5853 37.7328 89.8721 37.656C90.159 37.5791 90.4323 37.6157 90.6922 37.7657L95.1219 40.3232C95.3037 40.4282 95.4196 40.5875 95.4695 40.801C95.5244 41.0059 95.4969 41.2036 95.3869 41.3942ZM102.576 48.2639C102.356 48.645 102.102 48.9546 101.814 49.1927C101.532 49.4221 101.231 49.5833 100.912 49.6761C100.601 49.774 100.287 49.8178 99.9696 49.8077C99.6521 49.7976 99.3553 49.7417 99.0792 49.64L99.1711 52.8108C99.1704 52.972 99.1325 53.1176 99.0575 53.2475C98.9525 53.4294 98.7832 53.5626 98.5497 53.6471C98.3211 53.723 98.0899 53.6935 97.8561 53.5585C97.7262 53.4835 97.6181 53.3807 97.5319 53.25C97.4593 53.1158 97.4233 52.968 97.4241 52.8067L97.3838 48.8864L95.89 48.0239L94.4275 50.557C94.3025 50.7735 94.1195 50.9104 93.8786 50.9676C93.6464 51.0299 93.4177 50.996 93.1925 50.866C92.9847 50.746 92.8497 50.5699 92.7874 50.3376C92.7252 50.1054 92.7566 49.881 92.8816 49.6645L96.9466 42.6237C97.0966 42.3639 97.315 42.1956 97.6019 42.1187C97.8888 42.0419 98.1621 42.0784 98.4219 42.2284L101.319 43.9009C101.743 44.1459 102.091 44.4334 102.362 44.7633C102.642 45.0982 102.831 45.4612 102.929 45.8524C103.04 46.2399 103.063 46.64 102.998 47.0527C102.946 47.4618 102.806 47.8656 102.576 48.2639ZM100.31 45.1374L98.245 43.9449L96.6775 46.6599L98.7429 47.8524C99.1673 48.0974 99.588 48.1787 100.005 48.0962C100.427 48.005 100.756 47.756 100.991 47.3489C101.231 46.9332 101.282 46.5241 101.145 46.1217C101.013 45.7105 100.735 45.3824 100.31 45.1374ZM107.509 58.0924C107.394 58.2916 107.232 58.4229 107.022 58.4865C106.817 58.5414 106.623 58.5163 106.442 58.4113L102.012 55.8538C101.752 55.7038 101.584 55.4854 101.507 55.1985C101.43 54.9117 101.466 54.6383 101.616 54.3785L105.539 47.5846C105.689 47.3248 105.907 47.1564 106.194 47.0796C106.481 47.0027 106.754 47.0393 107.014 47.1893L111.444 49.7468C111.626 49.8518 111.742 50.011 111.792 50.2246C111.847 50.4295 111.819 50.6272 111.709 50.8178C111.599 51.0083 111.442 51.131 111.237 51.1859C111.032 51.2408 110.838 51.2158 110.657 51.1108L106.837 48.9058L105.562 51.1141L109.291 53.2666C109.472 53.3716 109.588 53.5309 109.638 53.7445C109.693 53.9494 109.666 54.1471 109.556 54.3376C109.446 54.5281 109.288 54.6508 109.083 54.7058C108.878 54.7607 108.685 54.7356 108.503 54.6306L104.775 52.4781L103.41 54.8424L107.229 57.0474C107.411 57.1524 107.529 57.3073 107.584 57.5122C107.639 57.7171 107.614 57.9105 107.509 58.0924ZM115.429 62.665C115.314 62.8642 115.152 62.9956 114.942 63.0591C114.737 63.114 114.543 63.089 114.362 62.984L109.932 60.4265C109.672 60.2765 109.504 60.058 109.427 59.7712C109.35 59.4843 109.387 59.211 109.537 58.9512L113.459 52.1572C113.609 51.8974 113.827 51.7291 114.114 51.6522C114.401 51.5753 114.675 51.6119 114.934 51.7619L119.364 54.3194C119.546 54.4244 119.662 54.5837 119.712 54.7972C119.767 55.0021 119.739 55.1999 119.629 55.3904C119.519 55.5809 119.362 55.7036 119.157 55.7585C118.952 55.8134 118.758 55.7884 118.577 55.6834L114.757 53.4784L113.482 55.6868L117.211 57.8393C117.392 57.9443 117.508 58.1035 117.558 58.3171C117.613 58.522 117.586 58.7197 117.476 58.9102C117.366 59.1008 117.208 59.2235 117.003 59.2784C116.798 59.3333 116.605 59.3082 116.423 59.2032L112.695 57.0507L111.33 59.415L115.149 61.62C115.331 61.725 115.449 61.8799 115.504 62.0848C115.559 62.2898 115.534 62.4831 115.429 62.665Z" fill="#475B6F"/>
</g>
<g filter="url(#filter1_d)">
<path d="M5.77794 45.5432C25.6576 21.9934 65.7957 28.185 74.6976 34.6412" stroke="white" stroke-width="3" stroke-linecap="round"/>
</g>
<defs>
<filter id="filter0_i" x="69.0581" y="28.4023" width="12.003" height="16.003" filterUnits="userSpaceOnUse" color-interpolation-filters="sRGB">
<feFlood flood-opacity="0" result="BackgroundImageFix"/>
<feBlend mode="normal" in="SourceGraphic" in2="BackgroundImageFix" result="shape"/>
<feColorMatrix in="SourceAlpha" type="matrix" values="0 0 0 0 0 0 0 0 0 0 0 0 0 0 0 0 0 0 127 0" result="hardAlpha"/>
<feOffset dy="4"/>
<feGaussianBlur stdDeviation="2"/>
<feComposite in2="hardAlpha" operator="arithmetic" k2="-1" k3="1"/>
<feColorMatrix type="matrix" values="0 0 0 0 0 0 0 0 0 0 0 0 0 0 0 0 0 0 0.24 0"/>
<feBlend mode="normal" in2="shape" result="effect1_innerShadow"/>
</filter>
<filter id="filter1_d" x="0.277832" y="26.2688" width="79.9198" height="27.7745" filterUnits="userSpaceOnUse" color-interpolation-filters="sRGB">
<feFlood flood-opacity="0" result="BackgroundImageFix"/>
<feColorMatrix in="SourceAlpha" type="matrix" values="0 0 0 0 0 0 0 0 0 0 0 0 0 0 0 0 0 0 127 0" result="hardAlpha"/>
<feOffset dy="3"/>
<feGaussianBlur stdDeviation="2"/>
<feComposite in2="hardAlpha" operator="out"/>
<feColorMatrix type="matrix" values="0 0 0 0 0 0 0 0 0 0 0 0 0 0 0 0 0 0 0.15 0"/>
<feBlend mode="normal" in2="BackgroundImageFix" result="effect1_dropShadow"/>
<feBlend mode="normal" in="SourceGraphic" in2="effect1_dropShadow" result="shape"/>
</filter>
<linearGradient id="paint0_linear" x1="100.656" y1="-44.1104" x2="50.338" y2="47.2409" gradientUnits="userSpaceOnUse">
<stop offset="0.159397" stop-color="#FACCA9"/>
<stop offset="0.801936" stop-color="#FFAE70"/>
</linearGradient>
<linearGradient id="paint1_linear" x1="75.1393" y1="19.112" x2="66.8907" y2="34.088" gradientUnits="userSpaceOnUse">
<stop offset="0.159397" stop-color="#FACCA9"/>
<stop offset="0.801936" stop-color="#FFAE70"/>
</linearGradient>
<clipPath id="clip0">
<rect width="80.2966" height="80.2966" fill="white" transform="translate(51 20.7822) rotate(-15)"/>
</clipPath>
</defs>
</svg>
