<svg width="155" height="99" viewBox="0 0 155 99" fill="none" xmlns="http://www.w3.org/2000/svg">
<g clip-path="url(#clip0)">
<path d="M61.6441 28.1368L67.0622 48.3575C67.7507 50.9282 69.432 53.1203 71.7363 54.4517L119.11 81.8055C120.262 82.4707 121.632 82.6509 122.917 82.3065C124.203 81.962 125.299 81.1212 125.964 79.9688L142.237 51.7781C142.903 50.6255 143.083 49.256 142.738 47.9706C142.394 46.6852 141.553 45.5892 140.401 44.9237L93.0281 17.5731C90.723 16.2432 87.984 15.8832 85.4134 16.5723L65.1928 21.9904C63.9071 22.3349 62.811 23.176 62.1455 24.3287C61.48 25.4814 61.2996 26.8512 61.6441 28.1368Z" fill="white" stroke="url(#paint0_linear)" stroke-width="1.52462" stroke-linecap="round" stroke-linejoin="round"/>
<g filter="url(#filter0_i)">
<path d="M81.6123 40.1993C84.8131 39.3417 86.7126 36.0517 85.855 32.8509C84.9973 29.6501 81.7073 27.7506 78.5065 28.6082C75.3057 29.4659 73.4062 32.7559 74.2639 35.9567C75.1215 39.1575 78.4115 41.057 81.6123 40.1993Z" fill="url(#paint1_linear)"/>
</g>
<path d="M100.387 41.3942C100.277 41.5847 100.119 41.7074 99.9145 41.7623C99.7096 41.8172 99.5162 41.7922 99.3344 41.6872L95.5152 39.4822L94.2402 41.6905L97.9684 43.843C98.1503 43.948 98.2662 44.1073 98.3161 44.3209C98.371 44.5258 98.3435 44.7235 98.2335 44.914C98.1235 45.1045 97.966 45.2273 97.7611 45.2822C97.5562 45.3371 97.3628 45.312 97.1809 45.207L93.4527 43.0545L91.6977 46.0943C91.5727 46.3108 91.3898 46.4476 91.1489 46.5049C90.9167 46.5671 90.688 46.5332 90.4628 46.4032C90.2549 46.2832 90.1199 46.1071 90.0577 45.8749C89.9955 45.6426 90.0268 45.4183 90.1518 45.2018L94.2168 38.161C94.3668 37.9012 94.5853 37.7328 94.8721 37.656C95.159 37.5791 95.4323 37.6157 95.6922 37.7657L100.122 40.3232C100.304 40.4282 100.42 40.5875 100.47 40.801C100.524 41.0059 100.497 41.2036 100.387 41.3942ZM107.576 48.2639C107.356 48.645 107.102 48.9546 106.814 49.1927C106.532 49.4221 106.231 49.5833 105.912 49.6761C105.601 49.774 105.287 49.8178 104.97 49.8077C104.652 49.7976 104.355 49.7417 104.079 49.64L104.171 52.8108C104.17 52.972 104.133 53.1176 104.058 53.2475C103.953 53.4294 103.783 53.5626 103.55 53.6471C103.321 53.723 103.09 53.6935 102.856 53.5585C102.726 53.4835 102.618 53.3807 102.532 53.25C102.459 53.1158 102.423 52.968 102.424 52.8067L102.384 48.8864L100.89 48.0239L99.4275 50.557C99.3025 50.7735 99.1195 50.9104 98.8786 50.9676C98.6464 51.0299 98.4177 50.996 98.1925 50.866C97.9847 50.746 97.8497 50.5699 97.7874 50.3376C97.7252 50.1054 97.7566 49.881 97.8816 49.6645L101.947 42.6237C102.097 42.3639 102.315 42.1956 102.602 42.1187C102.889 42.0419 103.162 42.0784 103.422 42.2284L106.319 43.9009C106.743 44.1459 107.091 44.4334 107.362 44.7633C107.642 45.0982 107.831 45.4612 107.929 45.8524C108.04 46.2399 108.063 46.64 107.998 47.0527C107.946 47.4618 107.806 47.8656 107.576 48.2639ZM105.31 45.1374L103.245 43.9449L101.677 46.6599L103.743 47.8524C104.167 48.0974 104.588 48.1787 105.005 48.0962C105.427 48.005 105.756 47.756 105.991 47.3489C106.231 46.9332 106.282 46.5241 106.145 46.1217C106.013 45.7105 105.735 45.3824 105.31 45.1374ZM112.509 58.0924C112.394 58.2916 112.232 58.4229 112.022 58.4865C111.817 58.5414 111.623 58.5163 111.442 58.4113L107.012 55.8538C106.752 55.7038 106.584 55.4854 106.507 55.1985C106.43 54.9117 106.466 54.6383 106.616 54.3785L110.539 47.5846C110.689 47.3248 110.907 47.1564 111.194 47.0796C111.481 47.0027 111.754 47.0393 112.014 47.1893L116.444 49.7468C116.626 49.8518 116.742 50.011 116.792 50.2246C116.847 50.4295 116.819 50.6272 116.709 50.8178C116.599 51.0083 116.442 51.131 116.237 51.1859C116.032 51.2408 115.838 51.2158 115.657 51.1108L111.837 48.9058L110.562 51.1141L114.291 53.2666C114.472 53.3716 114.588 53.5309 114.638 53.7445C114.693 53.9494 114.666 54.1471 114.556 54.3376C114.446 54.5281 114.288 54.6508 114.083 54.7058C113.878 54.7607 113.685 54.7356 113.503 54.6306L109.775 52.4781L108.41 54.8424L112.229 57.0474C112.411 57.1524 112.529 57.3073 112.584 57.5122C112.639 57.7171 112.614 57.9105 112.509 58.0924ZM120.429 62.665C120.314 62.8642 120.152 62.9956 119.942 63.0591C119.737 63.114 119.543 63.089 119.362 62.984L114.932 60.4265C114.672 60.2765 114.504 60.058 114.427 59.7712C114.35 59.4843 114.387 59.211 114.537 58.9512L118.459 52.1572C118.609 51.8974 118.827 51.7291 119.114 51.6522C119.401 51.5753 119.675 51.6119 119.934 51.7619L124.364 54.3194C124.546 54.4244 124.662 54.5837 124.712 54.7972C124.767 55.0021 124.739 55.1999 124.629 55.3904C124.519 55.5809 124.362 55.7036 124.157 55.7585C123.952 55.8134 123.758 55.7884 123.577 55.6834L119.757 53.4784L118.482 55.6868L122.211 57.8393C122.392 57.9443 122.508 58.1035 122.558 58.3171C122.613 58.522 122.586 58.7197 122.476 58.9102C122.366 59.1008 122.208 59.2235 122.003 59.2784C121.798 59.3333 121.605 59.3082 121.423 59.2032L117.695 57.0507L116.33 59.415L120.149 61.62C120.331 61.725 120.449 61.8799 120.504 62.0848C120.559 62.2898 120.534 62.4831 120.429 62.665Z" fill="#475B6F"/>
</g>
<g filter="url(#filter1_ii)">
<circle cx="11" cy="46" r="11" fill="url(#paint2_linear)"/>
</g>
<g filter="url(#filter2_d)">
<path d="M10.7779 45.5432C30.6576 21.9934 70.7957 28.185 79.6976 34.6412" stroke="white" stroke-width="3" stroke-linecap="round"/>
</g>
<defs>
<filter id="filter0_i" x="74.0581" y="28.4023" width="12.003" height="16.003" filterUnits="userSpaceOnUse" color-interpolation-filters="sRGB">
<feFlood flood-opacity="0" result="BackgroundImageFix"/>
<feBlend mode="normal" in="SourceGraphic" in2="BackgroundImageFix" result="shape"/>
<feColorMatrix in="SourceAlpha" type="matrix" values="0 0 0 0 0 0 0 0 0 0 0 0 0 0 0 0 0 0 127 0" result="hardAlpha"/>
<feOffset dy="4"/>
<feGaussianBlur stdDeviation="2"/>
<feComposite in2="hardAlpha" operator="arithmetic" k2="-1" k3="1"/>
<feColorMatrix type="matrix" values="0 0 0 0 0 0 0 0 0 0 0 0 0 0 0 0 0 0 0.24 0"/>
<feBlend mode="normal" in2="shape" result="effect1_innerShadow"/>
</filter>
<filter id="filter1_ii" x="0" y="35" width="22" height="25" filterUnits="userSpaceOnUse" color-interpolation-filters="sRGB">
<feFlood flood-opacity="0" result="BackgroundImageFix"/>
<feBlend mode="normal" in="SourceGraphic" in2="BackgroundImageFix" result="shape"/>
<feColorMatrix in="SourceAlpha" type="matrix" values="0 0 0 0 0 0 0 0 0 0 0 0 0 0 0 0 0 0 127 0" result="hardAlpha"/>
<feOffset dy="2"/>
<feGaussianBlur stdDeviation="4.5"/>
<feComposite in2="hardAlpha" operator="arithmetic" k2="-1" k3="1"/>
<feColorMatrix type="matrix" values="0 0 0 0 0 0 0 0 0 0 0 0 0 0 0 0 0 0 0.25 0"/>
<feBlend mode="normal" in2="shape" result="effect1_innerShadow"/>
<feColorMatrix in="SourceAlpha" type="matrix" values="0 0 0 0 0 0 0 0 0 0 0 0 0 0 0 0 0 0 127 0" result="hardAlpha"/>
<feOffset dy="3"/>
<feGaussianBlur stdDeviation="2"/>
<feComposite in2="hardAlpha" operator="arithmetic" k2="-1" k3="1"/>
<feColorMatrix type="matrix" values="0 0 0 0 0 0 0 0 0 0 0 0 0 0 0 0 0 0 0.05 0"/>
<feBlend mode="normal" in2="effect1_innerShadow" result="effect2_innerShadow"/>
</filter>
<filter id="filter2_d" x="2.88135" y="16.0132" width="82.685" height="47.4197" filterUnits="userSpaceOnUse" color-interpolation-filters="sRGB">
<feFlood flood-opacity="0" result="BackgroundImageFix"/>
<feColorMatrix in="SourceAlpha" type="matrix" values="0 0 0 0 0 0 0 0 0 0 0 0 0 0 0 0 0 0 127 0" result="hardAlpha"/>
<feOffset dy="3"/>
<feGaussianBlur stdDeviation="2"/>
<feComposite in2="hardAlpha" operator="out"/>
<feColorMatrix type="matrix" values="0 0 0 0 0 0 0 0 0 0 0 0 0 0 0 0 0 0 0.15 0"/>
<feBlend mode="normal" in2="BackgroundImageFix" result="effect1_dropShadow"/>
<feBlend mode="normal" in="SourceGraphic" in2="effect1_dropShadow" result="shape"/>
</filter>
<linearGradient id="paint0_linear" x1="105.656" y1="-44.1104" x2="55.338" y2="47.2409" gradientUnits="userSpaceOnUse">
<stop offset="0.159397" stop-color="#FACCA9"/>
<stop offset="0.801936" stop-color="#FFAE70"/>
</linearGradient>
<linearGradient id="paint1_linear" x1="80.1393" y1="19.112" x2="71.8907" y2="34.088" gradientUnits="userSpaceOnUse">
<stop offset="0.159397" stop-color="#FACCA9"/>
<stop offset="0.801936" stop-color="#FFAE70"/>
</linearGradient>
<linearGradient id="paint2_linear" x1="18.3975" y1="18.9583" x2="-3.31581" y2="41.5647" gradientUnits="userSpaceOnUse">
<stop offset="0.159397" stop-color="#FACCA9"/>
<stop offset="0.801936" stop-color="#FFAE70"/>
</linearGradient>
<clipPath id="clip0">
<rect width="80.2966" height="80.2966" fill="white" transform="translate(56 20.7822) rotate(-15)"/>
</clipPath>
</defs>
</svg>
