<svg>
    <symbol id='svglogo' viewBox="0 0 25 18" xmlns="http://www.w3.org/2000/svg">
        <path fill-rule="evenodd" clip-rule="evenodd" d="M9.64184 0.587402C9.11976 0.587402 8.59768 0.787534 8.19741 1.1878L1.01006 7.83566C0.209536 8.63619 0.209536 9.93269 1.01006 10.7332L8.19741 17.3898C8.59768 17.79 9.11976 17.9902 9.64184 17.9902H22.955C24.0861 17.9902 24.9998 17.0765 24.9998 15.9454V2.63223C24.9998 1.50105 24.0861 0.587402 22.955 0.587402H9.64184ZM18.3259 13.9008C18.6131 13.9008 18.8567 13.8051 19.0569 13.6049C19.257 13.4048 19.3614 13.1699 19.3527 12.8914V5.66926C19.3527 5.39081 19.2483 5.15588 19.0569 4.96445C18.8654 4.77302 18.6305 4.6773 18.3521 4.6773C18.0562 4.6773 17.8126 4.77302 17.6124 4.96445C17.4123 5.16458 17.3166 5.39081 17.3166 5.66926V8.27968H13.1747V5.66926C13.1747 5.39081 13.079 5.15588 12.8876 4.96445C12.6874 4.77302 12.4612 4.6773 12.1828 4.6773C11.9043 4.6773 11.6607 4.77302 11.4606 4.96445C11.2604 5.16458 11.1647 5.39081 11.1647 5.66926V12.9088C11.1647 13.1873 11.2604 13.4222 11.4519 13.6136C11.652 13.8051 11.8782 13.9008 12.1567 13.9008C12.4351 13.9008 12.6787 13.8051 12.8789 13.6136C13.079 13.4135 13.1747 13.1873 13.1747 12.9088V10.0548H17.3166V12.8914C17.3166 13.1699 17.4123 13.4048 17.6124 13.6049C17.8126 13.8051 18.0475 13.9008 18.3259 13.9008Z"/>

    </symbol>

    <symbol id="svgTags" viewBox="0 0 20 20" fill="none" xmlns="http://www.w3.org/2000/svg">
        <g clip-path="url(#clip0)">
<path d="M0.884277 2.1333V7.34747C0.884198 8.01034 1.14738 8.6461 1.61594 9.11497L11.2501 18.75C11.4845 18.9843 11.8024 19.116 12.1339 19.116C12.4653 19.116 12.7832 18.9843 13.0176 18.75L18.7501 13.0166C18.9844 12.7822 19.1161 12.4643 19.1161 12.1329C19.1161 11.8014 18.9844 11.4835 18.7501 11.2491L9.11594 1.61497C8.64708 1.1464 8.01131 0.883221 7.34844 0.883301H2.13428C1.80276 0.883301 1.48481 1.015 1.25039 1.24942C1.01597 1.48384 0.884277 1.80178 0.884277 2.1333V2.1333Z" stroke="white" stroke-width="2" stroke-linecap="round" stroke-linejoin="round"/>
<path d="M5.50928 7.0083C6.3377 7.0083 7.00928 6.33673 7.00928 5.5083C7.00928 4.67987 6.3377 4.0083 5.50928 4.0083C4.68085 4.0083 4.00928 4.67987 4.00928 5.5083C4.00928 6.33673 4.68085 7.0083 5.50928 7.0083Z" fill="white"/>
</g>
<defs>
<clipPath id="clip0">
<rect width="20" height="20" fill="white"/>
</clipPath>
</defs>
    </symbol>

    <symbol id="svgCsv" viewBox="0 0 20 20" fill="none" xmlns="http://www.w3.org/2000/svg">
    <path d="M1.25195 2.12744H18.752" stroke="white" stroke-width="2" stroke-linecap="round" stroke-linejoin="round"/>
<path d="M1.25195 17.8774H18.752" stroke="white" stroke-width="2" stroke-linecap="round" stroke-linejoin="round"/>
<path d="M5.25 6.87744C4.58696 6.87744 3.95107 7.14083 3.48223 7.60967C3.01339 8.07852 2.75 8.7144 2.75 9.37744V10.6274C2.75 11.2905 3.01339 11.9264 3.48223 12.3952C3.95107 12.864 4.58696 13.1274 5.25 13.1274" stroke="white" stroke-width="2" stroke-linecap="round" stroke-linejoin="round"/>
<path d="M11.25 6.87744H10C9.66848 6.87744 9.35054 7.00914 9.11612 7.24356C8.8817 7.47798 8.75 7.79592 8.75 8.12744C8.75 10.0024 11.25 10.0024 11.25 11.8774C11.25 12.209 11.1183 12.5269 10.8839 12.7613C10.6495 12.9957 10.3315 13.1274 10 13.1274H8.75" stroke="white" stroke-width="2" stroke-linecap="round" stroke-linejoin="round"/>
<path d="M14.75 6.87744V8.99994C14.7501 10.469 15.185 11.9052 16 13.1274C16.815 11.9052 17.2499 10.469 17.25 8.99994V6.87744" stroke="white" stroke-width="2" stroke-linecap="round" stroke-linejoin="round"/>
    </symbol>

    <symbol id="svgFilter" viewBox="0 0 20 20" fill="none" xmlns="http://www.w3.org/2000/svg">
    <g clip-path="url(#clip0)">
<path d="M10 8.125C14.4873 8.125 18.125 6.44607 18.125 4.375C18.125 2.30393 14.4873 0.625 10 0.625C5.51269 0.625 1.875 2.30393 1.875 4.375C1.875 6.44607 5.51269 8.125 10 8.125Z" stroke="white" stroke-width="2" stroke-linecap="round" stroke-linejoin="round"/>
<path d="M1.875 4.375C1.87602 6.20286 2.49355 7.97694 3.62771 9.41037C4.76187 10.8438 6.34638 11.8528 8.125 12.2742V17.5C8.125 17.9973 8.32254 18.4742 8.67417 18.8258C9.02581 19.1775 9.50272 19.375 10 19.375C10.4973 19.375 10.9742 19.1775 11.3258 18.8258C11.6775 18.4742 11.875 17.9973 11.875 17.5V12.2742C13.6536 11.8528 15.2381 10.8438 16.3723 9.41037C17.5065 7.97694 18.124 6.20286 18.125 4.375" stroke="white" stroke-width="2" stroke-linecap="round" stroke-linejoin="round"/>
</g>
<defs>
<clipPath id="clip0">
<rect width="20" height="20" fill="white"/>
</clipPath>
</defs>
    </symbol>

<symbol id="petrovLogo1" viewBox="0 0 28 34" xmlns="http://www.w3.org/2000/svg">
<path d="M9.74566 8.50414L0.4923 17.7072L15.3273 32.561L16.2038 31.6916L6.93457 22.403L15.3092 14.077C16.852 12.5425 16.8565 10.0521 15.3191 8.51417C13.783 6.9749 11.2885 6.9709 9.74566 8.50414ZM14.4369 13.2025L6.06233 21.5298L2.23984 17.7111L10.618 9.37858C11.6767 8.32537 13.3899 8.32844 14.4452 9.38468C15.5004 10.4409 15.4957 12.1506 14.4369 13.2025Z"/>
<path d="M17.9114 24.7681L27.1647 15.5651L12.3298 0.711307L11.4532 1.58068L20.7224 10.8693L12.3465 19.1954C10.8037 20.7299 10.7992 23.2202 12.3366 24.7582C13.8741 26.2987 16.3685 26.3027 17.9114 24.7681ZM13.2201 20.0698L21.5947 11.7425L25.4172 15.5612L17.0391 23.8937C15.9803 24.9469 14.2671 24.9438 13.2118 23.8876C12.1566 22.8314 12.1614 21.123 13.2201 20.0698Z"/>
</symbol>

<symbol id="petrovLogo2" viewBox="0 0 141 12" xmlns="http://www.w3.org/2000/svg">
<path d="M8.67985 4.50828C8.67985 6.67284 7.11093 7.98482 4.52202 7.98482H2.05769V11.0059H0.632812V1.03174H4.52202C7.11093 1.03174 8.67985 2.34371 8.67985 4.50828ZM7.25498 4.50828C7.25498 3.0834 6.30117 2.27364 4.4792 2.27364H2.05769V6.74681H4.4792C6.30117 6.74681 7.25498 5.93315 7.25498 4.50828Z" />
<path d="M19.4336 9.76396V11.002H12.1963V1.03174H19.235V2.26974H13.6212V5.33362H18.6199V6.54437H13.6212V9.76396H19.4336Z" />
<path d="M25.1467 2.27365H21.7285V1.03564H29.978V2.27365H26.5599V11.0059H25.1505V2.27365H25.1467Z" />
<path d="M39.6176 11.0059L37.4647 7.94199C37.2662 7.95757 37.0521 7.96925 36.8379 7.96925H34.3736V11.002H32.9487V1.03174H36.8379C39.4307 1.03174 40.9958 2.34371 40.9958 4.50828C40.9958 6.04605 40.1977 7.15948 38.804 7.6578L41.1671 11.0059H39.6176ZM39.5748 4.50828C39.5748 3.0834 38.621 2.27364 36.799 2.27364H34.3775V6.76238H36.799C38.621 6.75849 39.5748 5.93315 39.5748 4.50828Z" />
<path d="M43.9209 6.01891C43.9209 3.09908 46.1711 0.918945 49.235 0.918945C52.2677 0.918945 54.5218 3.08351 54.5218 6.01891C54.5218 8.95431 52.2716 11.1189 49.235 11.1189C46.175 11.1189 43.9209 8.93873 43.9209 6.01891ZM53.0969 6.01891C53.0969 3.81152 51.4463 2.1881 49.235 2.1881C47.0003 2.1881 45.3458 3.81152 45.3458 6.01891C45.3458 8.2263 47.0003 9.84972 49.235 9.84972C51.4424 9.84972 53.0969 8.2263 53.0969 6.01891Z" />
<path d="M66.4735 1.03174L62.1015 11.002H60.6922L56.3047 1.03174H57.8425L61.4319 9.22282L65.0486 1.03174H66.4735Z" />
<path d="M75.9531 1.03174H80.1538C83.3578 1.03174 85.538 3.05615 85.538 6.0188C85.538 8.98145 83.3578 11.0059 80.1538 11.0059H75.9531V1.03174ZM80.072 9.76396C82.5364 9.76396 84.117 8.25344 84.117 6.0188C84.117 3.78416 82.5364 2.27364 80.072 2.27364H77.378V9.76786H80.072V9.76396Z" />
<path d="M89.0039 1.03174H90.4288V11.002H89.0039V1.03174Z" />
<path d="M101.684 5.96051H103.05V9.84972C102.054 10.6906 100.672 11.1189 99.2741 11.1189C96.2102 11.1189 93.96 8.96599 93.96 6.01891C93.96 3.07183 96.2102 0.918945 99.3013 0.918945C100.882 0.918945 102.221 1.44451 103.132 2.45672L102.248 3.34045C101.423 2.54237 100.481 2.1881 99.3558 2.1881C97.0472 2.1881 95.381 3.79595 95.381 6.01891C95.381 8.21072 97.0472 9.84972 99.3402 9.84972C100.181 9.84972 100.964 9.66285 101.676 9.20736V5.96051H101.684Z" />
<path d="M107.196 1.03174H108.621V11.002H107.196V1.03174Z" />
<path d="M115.017 2.27365H111.599V1.03564H119.849V2.27365H116.43V11.0059H115.021V2.27365H115.017Z" />
<path d="M128.679 8.51039H123.38L122.282 11.002H120.814L125.33 1.03174H126.74L131.271 11.002H129.776L128.679 8.51039ZM128.18 7.3736L126.027 2.48776L123.874 7.3736H128.18Z" />
<path d="M134.175 1.03174H135.6V9.76396H140.999V11.002H134.175V1.03174Z"/>
</symbol>

</svg>