<svg>
    <symbol id='logo' viewBox="0 0 25 18" xmlns="http://www.w3.org/2000/svg">
        <path fill-rule="evenodd" clip-rule="evenodd" d="M9.64184 0.587402C9.11976 0.587402 8.59768 0.787534 8.19741 1.1878L1.01006 7.83566C0.209536 8.63619 0.209536 9.93269 1.01006 10.7332L8.19741 17.3898C8.59768 17.79 9.11976 17.9902 9.64184 17.9902H22.955C24.0861 17.9902 24.9998 17.0765 24.9998 15.9454V2.63223C24.9998 1.50105 24.0861 0.587402 22.955 0.587402H9.64184ZM18.3259 13.9008C18.6131 13.9008 18.8567 13.8051 19.0569 13.6049C19.257 13.4048 19.3614 13.1699 19.3527 12.8914V5.66926C19.3527 5.39081 19.2483 5.15588 19.0569 4.96445C18.8654 4.77302 18.6305 4.6773 18.3521 4.6773C18.0562 4.6773 17.8126 4.77302 17.6124 4.96445C17.4123 5.16458 17.3166 5.39081 17.3166 5.66926V8.27968H13.1747V5.66926C13.1747 5.39081 13.079 5.15588 12.8876 4.96445C12.6874 4.77302 12.4612 4.6773 12.1828 4.6773C11.9043 4.6773 11.6607 4.77302 11.4606 4.96445C11.2604 5.16458 11.1647 5.39081 11.1647 5.66926V12.9088C11.1647 13.1873 11.2604 13.4222 11.4519 13.6136C11.652 13.8051 11.8782 13.9008 12.1567 13.9008C12.4351 13.9008 12.6787 13.8051 12.8789 13.6136C13.079 13.4135 13.1747 13.1873 13.1747 12.9088V10.0548H17.3166V12.8914C17.3166 13.1699 17.4123 13.4048 17.6124 13.6049C17.8126 13.8051 18.0475 13.9008 18.3259 13.9008Z"/>

    </symbol>

    <symbol id="svgTags" viewBox="0 0 20 20" fill="none" xmlns="http://www.w3.org/2000/svg">
        <g clip-path="url(#clip0)">
<path d="M0.884277 2.1333V7.34747C0.884198 8.01034 1.14738 8.6461 1.61594 9.11497L11.2501 18.75C11.4845 18.9843 11.8024 19.116 12.1339 19.116C12.4653 19.116 12.7832 18.9843 13.0176 18.75L18.7501 13.0166C18.9844 12.7822 19.1161 12.4643 19.1161 12.1329C19.1161 11.8014 18.9844 11.4835 18.7501 11.2491L9.11594 1.61497C8.64708 1.1464 8.01131 0.883221 7.34844 0.883301H2.13428C1.80276 0.883301 1.48481 1.015 1.25039 1.24942C1.01597 1.48384 0.884277 1.80178 0.884277 2.1333V2.1333Z" stroke="white" stroke-width="2" stroke-linecap="round" stroke-linejoin="round"/>
<path d="M5.50928 7.0083C6.3377 7.0083 7.00928 6.33673 7.00928 5.5083C7.00928 4.67987 6.3377 4.0083 5.50928 4.0083C4.68085 4.0083 4.00928 4.67987 4.00928 5.5083C4.00928 6.33673 4.68085 7.0083 5.50928 7.0083Z" fill="white"/>
</g>
<defs>
<clipPath id="clip0">
<rect width="20" height="20" fill="white"/>
</clipPath>
</defs>
    </symbol>

    <symbol id="svgCsv" viewBox="0 0 20 20" fill="none" xmlns="http://www.w3.org/2000/svg">
    <path d="M1.25195 2.12744H18.752" stroke="white" stroke-width="2" stroke-linecap="round" stroke-linejoin="round"/>
<path d="M1.25195 17.8774H18.752" stroke="white" stroke-width="2" stroke-linecap="round" stroke-linejoin="round"/>
<path d="M5.25 6.87744C4.58696 6.87744 3.95107 7.14083 3.48223 7.60967C3.01339 8.07852 2.75 8.7144 2.75 9.37744V10.6274C2.75 11.2905 3.01339 11.9264 3.48223 12.3952C3.95107 12.864 4.58696 13.1274 5.25 13.1274" stroke="white" stroke-width="2" stroke-linecap="round" stroke-linejoin="round"/>
<path d="M11.25 6.87744H10C9.66848 6.87744 9.35054 7.00914 9.11612 7.24356C8.8817 7.47798 8.75 7.79592 8.75 8.12744C8.75 10.0024 11.25 10.0024 11.25 11.8774C11.25 12.209 11.1183 12.5269 10.8839 12.7613C10.6495 12.9957 10.3315 13.1274 10 13.1274H8.75" stroke="white" stroke-width="2" stroke-linecap="round" stroke-linejoin="round"/>
<path d="M14.75 6.87744V8.99994C14.7501 10.469 15.185 11.9052 16 13.1274C16.815 11.9052 17.2499 10.469 17.25 8.99994V6.87744" stroke="white" stroke-width="2" stroke-linecap="round" stroke-linejoin="round"/>
    </symbol>

    <symbol id="svgFilter" viewBox="0 0 20 20" fill="none" xmlns="http://www.w3.org/2000/svg">
    <g clip-path="url(#clip0)">
<path d="M10 8.125C14.4873 8.125 18.125 6.44607 18.125 4.375C18.125 2.30393 14.4873 0.625 10 0.625C5.51269 0.625 1.875 2.30393 1.875 4.375C1.875 6.44607 5.51269 8.125 10 8.125Z" stroke="white" stroke-width="2" stroke-linecap="round" stroke-linejoin="round"/>
<path d="M1.875 4.375C1.87602 6.20286 2.49355 7.97694 3.62771 9.41037C4.76187 10.8438 6.34638 11.8528 8.125 12.2742V17.5C8.125 17.9973 8.32254 18.4742 8.67417 18.8258C9.02581 19.1775 9.50272 19.375 10 19.375C10.4973 19.375 10.9742 19.1775 11.3258 18.8258C11.6775 18.4742 11.875 17.9973 11.875 17.5V12.2742C13.6536 11.8528 15.2381 10.8438 16.3723 9.41037C17.5065 7.97694 18.124 6.20286 18.125 4.375" stroke="white" stroke-width="2" stroke-linecap="round" stroke-linejoin="round"/>
</g>
<defs>
<clipPath id="clip0">
<rect width="20" height="20" fill="white"/>
</clipPath>
</defs>
    </symbol>

</svg>