<svg width="20" height="20" viewBox="0 0 20 20" fill="none" xmlns="http://www.w3.org/2000/svg">
<g clip-path="url(#clip0)">
<path d="M0.884277 2.1333V7.34747C0.884198 8.01034 1.14738 8.6461 1.61594 9.11497L11.2501 18.75C11.4845 18.9843 11.8024 19.116 12.1339 19.116C12.4653 19.116 12.7832 18.9843 13.0176 18.75L18.7501 13.0166C18.9844 12.7822 19.1161 12.4643 19.1161 12.1329C19.1161 11.8014 18.9844 11.4835 18.7501 11.2491L9.11594 1.61497C8.64708 1.1464 8.01131 0.883221 7.34844 0.883301H2.13428C1.80276 0.883301 1.48481 1.015 1.25039 1.24942C1.01597 1.48384 0.884277 1.80178 0.884277 2.1333V2.1333Z" stroke="white" stroke-width="2" stroke-linecap="round" stroke-linejoin="round"/>
<path d="M5.50928 7.0083C6.3377 7.0083 7.00928 6.33673 7.00928 5.5083C7.00928 4.67987 6.3377 4.0083 5.50928 4.0083C4.68085 4.0083 4.00928 4.67987 4.00928 5.5083C4.00928 6.33673 4.68085 7.0083 5.50928 7.0083Z" fill="white"/>
</g>
<defs>
<clipPath id="clip0">
<rect width="20" height="20" fill="white"/>
</clipPath>
</defs>
</svg>
